<svg xmlns="http://www.w3.org/2000/svg" viewBox="0 0 1080 1080" id="CustomerExperience"><path d="M350.2 452c13.4 0 24.4-10.9 24.4-24.4 0-13.6-10.9-24.5-24.4-24.5-13.5 0-24.4 10.9-24.4 24.5 0 13.5 10.9 24.4 24.4 24.4zm151.2 0c13.6 0 24.5-10.9 24.5-24.4 0-13.6-10.9-24.5-24.5-24.5-13.5 0-24.4 10.9-24.4 24.5 0 13.5 11 24.4 24.4 24.4zm-128 98.6c.1.3.2.4.5.6 14.2 13.6 32.8 21.1 52.3 21.1s38.1-7.5 52.3-21.1c.3-.3.4-.4.5-.6 4.4-4.9 4.4-12.4-.3-17.2-4.8-5-12.7-5.2-17.7-.4-19 18.2-50.7 18.2-69.6 0-5-4.8-12.9-4.7-17.9.4-4.5 4.7-4.6 12.3-.1 17.2zm52.8-51.6c6.9 0 12.6-5.7 12.6-12.6V444c0-7-5.7-12.6-12.6-12.6-6.9 0-12.6 5.5-12.6 12.6v42.5c.1 6.9 5.7 12.5 12.6 12.5z" fill="#757575" class="color000000 svgShape"></path><path d="M940 775.7c-.4-12.7-6.9-24.1-16.7-31.3 5.9-8.3 8.6-18.6 7.3-28.9-2.6-20.2-20.4-35.4-41.4-35.4H801l7.5-24.8c.4-1.1.6-2.4.6-3.6v-16.3c68.4-7.7 121.6-65.6 121.6-136.1 0-75.9-61.5-137.3-137.1-137.3-75.8 0-137.3 61.3-137.3 137.3 0 44.4 21.1 83.8 53.9 109v38.6l-30 45c-7-10.8-19.1-17.8-32.9-17.8H636c-9.9-4.9-20.6-8.7-31.9-10.9l-63.2-13.1c-.5-.1-1.1-.3-1.6-.3l-20.1-4.3c-.1 0-.4-.1-.6-.1-.3-.1-.5-.1-.8-.3-7.5-1.6-14.6-6-19.7-12.1-.5-.6-1-1.3-1.4-1.9 49-24.6 83.5-74.2 86.7-132v-.1c28.7-6.4 49.8-31.7 49.8-62.3 0-11.1-3-21.4-8-30.5 0-.1.1-.2.1-.3 4.9-17.5 7.5-36 7.5-55.1 0-114-92.8-206.8-206.7-206.8-114 0-206.8 92.8-206.8 206.8 0 19.1 2.6 37.6 7.5 55.1 0 .1.1.2.1.3-4.9 9.1-8 19.4-8 30.5 0 30.6 21.1 55.9 49.9 62.3v.1c3.1 57.8 37.6 107.4 86.5 132-4.6 6.4-11.2 11.3-19.1 13.6l-23.1 5c-.6 0-1.3.1-2 .3L248 662.9c-62.6 12.9-108 68.8-108 132.6v73.9c0 35.2 28.5 63.9 63.7 63.9H571c4.3 1.8 9.1 2.6 14 2.6h62.2c7.3 0 14.2-2 20-5.5h.1c6.8-2.1 13.1-5.4 18.6-9.4l20.4 8c1.5.5 3 .9 4.7.9h145.8c20.9 0 38.7-15.2 41.2-35.4 1-8-.4-16.1-3.9-23.3 15.6-5.7 27-20.1 27.5-37.1.3-7.3-1.5-14.3-4.9-20.5 4.4-2 8.3-4.9 11.8-8.4 7.7-7.9 11.7-18.4 11.5-29.5zm-29.6 11.9c-2.9 3.1-6.9 4.8-11.1 4.8H845.7c-6.9 0-12.6 5.7-12.6 12.6 0 6.9 5.7 12.6 12.6 12.6h35.9c4 .1 7.7 1.8 10.4 4.7 3 3 4.5 7 4.4 11.3-.3 8.3-7.7 15.1-16.6 15.1H821.7c-7 0-12.6 5.5-12.6 12.6 0 6.9 5.5 12.6 12.6 12.6h35.8c4.5 0 8.8 1.9 11.7 5.3 3 3.4 4.3 7.8 3.8 12.3-1 7.5-8.2 13.5-16.3 13.5H713.3l-9.6-3.9-17.2-6.8v-20.6c.1-1.3.3-2.5.3-3.9v-74c0-2.1-.1-4.3-.3-6.4v-68.6l1.8-.6c.1 0 .1 0 .3-.1 2.5-.9 4.7-2.6 6.3-4.8l38.3-57.4c1.4-2 2.1-4.4 2.1-6.9v-53.3c0-5.5 4.5-10.1 10.1-10.1 21.2 0 38.6 17.3 38.6 38.6v23.9L771.9 689c-1.1 3.8-.4 7.9 1.9 11.1 2.4 3.3 6.2 5.2 10.2 5.2h105.2c8.2 0 15.3 5.9 16.3 13.5.6 4.5-.8 8.9-3.6 12.3-3 3.3-7.3 5.3-11.7 5.3h-37.5c-6.9 0-12.6 5.5-12.6 12.6 0 6.9 5.7 12.6 12.6 12.6h45.4c9.1 0 16.5 6.7 16.7 15 .2 4-1.3 8-4.4 11zm-249-74.4v183.5c0 .3 0 .6-.1.9-.1 3.9-2 7.3-4.8 9.7-1.1.3-2.3.5-3.5.5l1.9.8c-2.3 1.4-4.9 2.3-7.7 2.3H585c-3 0-5.9-1-8.2-2.6-3.5-2.5-5.9-6.7-5.9-11.4V713.2c0-7.8 6.3-14.2 14.1-14.2h62.3c4 0 7.7 1.8 10.3 4.4 2.3 2.5 3.8 6.1 3.8 9.8zm82-236.6 21.4-3c3.8-.6 7-3 8.7-6.4l9.6-19.4c4.3-8.7 16.6-8.7 20.9 0l9.6 19.4c1.8 3.4 5 5.8 8.8 6.4l21.4 3c9.6 1.4 13.3 13.2 6.4 19.9l-15.5 15.1c-2.6 2.6-3.9 6.5-3.3 10.3l3.6 21.2c1.6 9.6-8.4 16.7-17 12.3l-19.1-10.1c-3.3-1.8-7.4-1.8-10.8 0L769 555.4c-8.6 4.4-18.5-2.8-16.8-12.3l3.6-21.2c.6-3.8-.6-7.7-3.4-10.3L737 496.5c-6.9-6.7-3.2-18.5 6.4-19.9zm-449.8 13.5V383.2c0-.9-.1-1.9-.4-2.8-.6-12.4-.6-57.4 31.2-74 13.5-7 30.3-4.7 41.6 5.9 16.1 15 45.8 33.9 96.3 39.6 6.3.6 11.6-3 13.5-8.8 1.4-4.3.3-8.9-2.8-12.2 18.5 7.7 40 13.3 63.5 13.7 5-.4 9.9-3.1 11.9-8 1.9-4.9.6-10.4-3.3-14-8.5-7.7-27.4-26.5-40.4-45.4 10.9 4.7 23.4 12.3 33.7 24.6 16.6 19.9 23.3 47.5 20 83.2v105c0 7-.5 14-1.6 20.6-6.4 41.2-32.1 76.3-67.4 95.7-3.9 2.1-7.9 4-11.9 5.8-13.4 5.7-27.9 9.2-43.1 10.2h-16.8c-15.1-1-29.5-4.5-43-10.1-4-1.8-8-3.8-11.9-5.8-35.3-19.5-61-54.4-67.4-95.8-1.2-6.6-1.7-13.5-1.7-20.5zm77.2 161.5c3.1-3.3 5.8-7 8.2-10.9 14.8 4.5 30.7 7 47 7h2c15.7-.3 30.8-2.6 45.1-7.2 1.5 2.9 3.4 5.5 5.5 8.2 1 1.3 2.1 2.5 3.4 3.8.9.9 1.8 1.8 2.6 2.5 1.5 1.5 3.3 2.9 5 4.1 1 .9 2.1 1.6 3.4 2.4.8.5 1.5.9 2.3 1.4L428 755.2l-1 1.4-68.6-94.5c.6-.4 1.4-.9 2-1.4.6-.4 1.1-.8 1.8-1.3.9-.6 1.8-1.4 2.6-2.1 1.1-.8 2.1-1.6 3.1-2.6 1-1.1 2-2.1 2.9-3.1zM428 908.2V790.4c3.6-.3 7-2 9.2-5l83.2-114 15.3 3.1c.6.1 1.3.3 1.8.3l26.3 5.4c-10.8 6.9-18 19.1-18 33.1v183.5c0 4 .6 7.8 1.6 11.4H428z" fill="#757575" class="color000000 svgShape"></path><path d="M616.2 851.7c-9.8 0-17.8 7.9-17.8 17.9 0 9.9 8 17.8 17.8 17.8 7 0 13.2-4 16-9.9 1.3-2.4 1.9-5 1.9-7.9 0-2.9-.6-5.5-1.9-7.9-2.8-5.9-9-10-16-10z" fill="#757575" class="color000000 svgShape"></path></svg>