<svg xmlns="http://www.w3.org/2000/svg" xmlns:xlink="http://www.w3.org/1999/xlink" viewBox="0 0 42 42" id="Experience"><defs><linearGradient id="b" x1="1056.035" x2="1031.176" y1="544.13" y2="517.701" gradientTransform="translate(-1384.02 316.47) scale(1.34562)" gradientUnits="userSpaceOnUse" xlink:href="#a"></linearGradient><linearGradient id="a"><stop offset="0" stop-color="#5a5a5a" class="stopColor5a5a5a svgShape"></stop><stop offset="1" stop-color="#757575" class="stopColor656e85 svgShape"></stop></linearGradient></defs><g transform="translate(0 -1010.362)" fill="#000000" class="color000000 svgShape"><rect width="42" height="42" y="1010.362" fill="url(#b)" rx="8.876" ry="8.876"></rect><path fill="#ffffff" fill-rule="evenodd" d="M13.5 1015.362a.5.5 0 0 0-.5.5v1.5H6.5a.5.5 0 0 0-.5.5c0 4.803 1.676 8.407 3.896 10.928 2.2 2.497 4.91 3.94 7.088 4.537.198.223.4.438.612.629.45.405.942.723 1.459.96a.5.5 0 0 0 .074.144s.143.191.28.45c.135.26.221.584.208.682-.028.21-.279.514-.582.739a3.614 3.614 0 0 1-.594.355.5.5 0 0 0-.171.129c-.025.02-.074.02-.092.04a.821.821 0 0 0-.17.298 1.621 1.621 0 0 0-.084.55c0 .184.018.364.084.551.017.048.06.102.088.153-.012 1.178-.15 1.706-.399 2.076-.256.379-.744.712-1.494 1.375a.5.5 0 0 0-.025.02c-.004 0-.006.01-.01.01a.5.5 0 0 0-.088.102.5.5 0 0 0-.014.025.5.5 0 0 0-.011.018.5.5 0 0 0-.006.014.5.5 0 0 0-.043.14.5.5 0 0 0 0 .011.5.5 0 0 0-.006.064v1.5h-.352a.658.658 0 0 0-.648.65v1.702c0 .35.3.648.648.648h10.704a.656.656 0 0 0 .648-.648v-1.702c0-.35-.3-.65-.648-.65h-.325v-1.5a.5.5 0 0 0-.29-.455c-.71-.621-1.187-.957-1.434-1.324-.25-.37-.387-.898-.399-2.078.028-.051.071-.105.088-.153a1.61 1.61 0 0 0 .082-.55c0-.185-.017-.366-.084-.553a.822.822 0 0 0-.172-.295.708.708 0 0 0-.244-.16s-.31-.158-.625-.399c-.314-.24-.558-.572-.57-.693-.011-.11.081-.437.217-.695.135-.26.277-.452.277-.452a.5.5 0 0 0 .072-.138 5.795 5.795 0 0 0 1.46-.961c.211-.19.413-.406.61-.63 2.178-.596 4.89-2.04 7.089-4.536 2.22-2.521 3.896-6.125 3.896-10.928a.5.5 0 0 0-.5-.5H29v-1.5a.5.5 0 0 0-.5-.5h-15zm.5 1h14v1.924H14v-1.924zm-6.957 2H13v.424a.5.5 0 0 0 .002.049c0 .178.007.35.01.527H8.8a.5.5 0 0 0-.5.5c0 2.902 1.312 5.404 2.85 7.31 1.518 1.885 3.245 3.194 4.279 3.798.168.331.345.645.53.945a14.424 14.424 0 0 1-5.313-3.787c-1.994-2.264-3.488-5.464-3.604-9.766zm21.957 0h5.957c-.116 4.302-1.61 7.502-3.603 9.766a14.424 14.424 0 0 1-5.313 3.787c.184-.3.36-.614.527-.945 1.034-.604 2.762-1.912 4.282-3.797 1.537-1.907 2.85-4.41 2.85-7.31a.5.5 0 0 0-.5-.5h-4.212c.003-.194.012-.383.012-.577v-.424zm-14.957.924h13.914c-.058 4.121-.757 7.907-1.977 10.623-.635 1.416-1.4 2.544-2.244 3.303-.843.759-1.746 1.15-2.736 1.15-.99 0-1.893-.392-2.736-1.15-.844-.759-1.61-1.887-2.246-3.303-1.22-2.716-1.917-6.502-1.975-10.623zm-4.637 1.076h3.627c.136 3.31.698 6.357 1.62 8.838a16.672 16.672 0 0 1-2.723-2.654c-1.345-1.668-2.376-3.803-2.524-6.184zm19.56 0h3.628c-.148 2.38-1.18 4.516-2.524 6.184-.9 1.116-1.883 1.999-2.726 2.656.922-2.481 1.487-5.529 1.623-8.84zm-8.581 15.055c.394.056.834.056 1.228 0-.117.27-.264.53-.228.885.067.669.557 1.08.957 1.386.364.279.653.423.713.453.009.043.02.091.02.163 0 .026-.005.034-.007.059h-4.136c-.003-.025-.008-.033-.008-.06 0-.07.01-.117.02-.16.076-.036.335-.147.687-.408.4-.297.885-.734.976-1.408.05-.366-.102-.633-.222-.91zm-1.389 3.945h4.008c.05.965.129 1.778.469 2.281.186.277.517.502.763.72h-6.472c.246-.218.577-.443.763-.72.34-.503.42-1.316.47-2.28zm-1.996 4h8.027v1H17v-1zm-1 2h10v1H16v-1z" color="#000" font-family="sans-serif" font-weight="400" overflow="visible" style="line-height:normal;text-indent:0;text-align:start;text-decoration-line:none;text-decoration-style:solid;text-decoration-color:#000;text-transform:none;block-progression:tb;isolation:auto;mix-blend-mode:normal" class="colorffffff svgShape"></path></g></svg>