<svg xmlns="http://www.w3.org/2000/svg" viewBox="0 0 64 64" id="SkillChangeConcept"><path d="M59.271 38.9A9.463 9.463 0 0 0 55.815 37c1.3 3.209.325 7.095-2.827 9.852L51.23 45.315 50 55l11.072-1.076-2.46-2.152C62.858 48.057 63.153 42.293 59.271 38.9zM2.928 38.076l2.46 2.152C1.142 43.943.847 49.707 4.729 53.1A9.463 9.463 0 0 0 8.185 55c-1.3-3.209-.325-7.095 2.827-9.852l1.758 1.537L14 37zM29.973 7.081l1.106-1.458V12h1.842V5.623l1.106 1.458L35.5 5.988 32.737 2.344a.961.961 0 0 0-1.474 0L28.5 5.988zM47 29h7l-1.6 1.2 1.2 1.6 4-3a1 1 0 0 0 0-1.6l-4-3-1.2 1.6L54 27H47zM17 27H10l1.6-1.2-1.2-1.6-4 3a1 1 0 0 0 0 1.6l4 3 1.2-1.6L10 29h7zM41.707 14.707l4.95-4.95-.283 1.98 1.98.284.707-4.951A1 1 0 0 0 47.93 5.939l-4.951.707.284 1.98 1.98-.283-4.95 4.95zM23.778 13.293l-4.95-4.95 1.98.283.283-1.98-4.949-.707A1 1 0 0 0 15.01 7.07l.707 4.951 1.98-.284-.283-1.98 4.95 4.95zM29 48H20V62H44V48H34V44zm-1 8a1 1 0 1 1 1-1A1 1 0 0 1 28 56zm8-2a1 1 0 1 1-1 1A1 1 0 0 1 36 54zm-4 2a1 1 0 1 1 1-1A1 1 0 0 1 32 56zM29.216 15A8.217 8.217 0 0 0 21 23.216V26.27A2.8 2.8 0 0 0 20 28.4a2.884 2.884 0 0 0 2 2.7v3.029a5.1 5.1 0 0 0 3.228 4.67l3.952 1.639a7.32 7.32 0 0 0 5.64 0L38.772 38.8A5.1 5.1 0 0 0 42 34.126V31.1a2.884 2.884 0 0 0 2-2.7 2.8 2.8 0 0 0-1-2.125V23.216A8.217 8.217 0 0 0 34.784 15zm-.2 4.01H29L29 19zM37 24.731h1.2a1.8 1.8 0 0 1 1.8 1.8 1 1 0 0 0 1 1 .875.875 0 1 1 0 1.732 1 1 0 0 0-1 1v3.865a3.105 3.105 0 0 1-1.993 2.823l-3.953 1.638a5.329 5.329 0 0 1-4.108 0l-3.953-1.638A3.105 3.105 0 0 1 24 34.126V30.261a1 1 0 0 0-1-1 .875.875 0 1 1 0-1.732 1 1 0 0 0 1-1 1.8 1.8 0 0 1 1.8-1.8H30a1 1 0 0 0 .966-1.259l-.445-1.66 6.056 2.825A1 1 0 0 0 37 24.731z" fill="#757575" class="color000000 svgShape"></path><path d="M36 29a1 1 0 0 1 1 1h2a3 3 0 0 0-6 0h2A1 1 0 0 1 36 29zM28 27a3 3 0 0 0-3 3h2a1 1 0 0 1 2 0h2A3 3 0 0 0 28 27zM30 34H28c0 1.682 1.757 3 4 3s4-1.318 4-3H34c0 .408-.779 1-2 1S30 34.408 30 34z" fill="#757575" class="color000000 svgShape"></path></svg>